<mxfile host="app.diagrams.net" agent="Mozilla/5.0 (Windows NT 10.0; Win64; x64) AppleWebKit/537.36 (KHTML, like Gecko) Chrome/130.0.0.0 Safari/537.36 Edg/130.0.0.0" version="24.8.3">
  <diagram name="Страница — 1" id="MtI3_Fd7SQ4gRp2iTpJ0">
    <mxGraphModel dx="1386" dy="791" grid="1" gridSize="10" guides="1" tooltips="1" connect="1" arrows="1" fold="1" page="1" pageScale="1" pageWidth="827" pageHeight="1169" math="0" shadow="0">
      <root>
        <mxCell id="0" />
        <mxCell id="1" parent="0" />
        <mxCell id="n6gCB87Q7yF7u9heOllY-1" value="начало" style="strokeWidth=1;html=1;shape=mxgraph.flowchart.terminator;whiteSpace=wrap;" vertex="1" parent="1">
          <mxGeometry x="300" y="180" width="120" height="40" as="geometry" />
        </mxCell>
        <mxCell id="n6gCB87Q7yF7u9heOllY-3" value="конец" style="strokeWidth=1;html=1;shape=mxgraph.flowchart.terminator;whiteSpace=wrap;" vertex="1" parent="1">
          <mxGeometry x="300" y="565" width="120" height="40" as="geometry" />
        </mxCell>
        <mxCell id="n6gCB87Q7yF7u9heOllY-4" value="&amp;nbsp;Определение события Do, &lt;br/&gt;соотв-го сообщению Mes" style="rounded=0;whiteSpace=wrap;html=1;" vertex="1" parent="1">
          <mxGeometry x="280" y="250" width="160" height="50" as="geometry" />
        </mxCell>
        <mxCell id="n6gCB87Q7yF7u9heOllY-5" value="&lt;font style=&quot;font-size: 12px;&quot;&gt;Do = мышь перемещается?&lt;/font&gt;" style="strokeWidth=1;html=1;shape=mxgraph.flowchart.decision;whiteSpace=wrap;" vertex="1" parent="1">
          <mxGeometry x="300" y="320" width="120" height="110" as="geometry" />
        </mxCell>
        <mxCell id="n6gCB87Q7yF7u9heOllY-6" value="Передача сообщения Mes станд. &lt;br/&gt;обработчику Win" style="shape=process;whiteSpace=wrap;html=1;backgroundOutline=1;" vertex="1" parent="1">
          <mxGeometry x="280" y="490" width="160" height="50" as="geometry" />
        </mxCell>
        <mxCell id="n6gCB87Q7yF7u9heOllY-7" value="перерасчет координат мыши" style="shape=process;whiteSpace=wrap;html=1;backgroundOutline=1;" vertex="1" parent="1">
          <mxGeometry x="490" y="355" width="160" height="40" as="geometry" />
        </mxCell>
        <mxCell id="n6gCB87Q7yF7u9heOllY-27" style="edgeStyle=orthogonalEdgeStyle;rounded=0;orthogonalLoop=1;jettySize=auto;html=1;exitX=0;exitY=0.5;exitDx=0;exitDy=0;" edge="1" parent="1" source="n6gCB87Q7yF7u9heOllY-9">
          <mxGeometry relative="1" as="geometry">
            <mxPoint x="360" y="460" as="targetPoint" />
          </mxGeometry>
        </mxCell>
        <mxCell id="n6gCB87Q7yF7u9heOllY-9" value="отображение координат" style="shape=process;whiteSpace=wrap;html=1;backgroundOutline=1;" vertex="1" parent="1">
          <mxGeometry x="490" y="440" width="160" height="40" as="geometry" />
        </mxCell>
        <mxCell id="n6gCB87Q7yF7u9heOllY-17" value="" style="endArrow=none;html=1;rounded=0;exitX=0.5;exitY=1;exitDx=0;exitDy=0;exitPerimeter=0;entryX=0.5;entryY=0;entryDx=0;entryDy=0;" edge="1" parent="1" source="n6gCB87Q7yF7u9heOllY-1" target="n6gCB87Q7yF7u9heOllY-4">
          <mxGeometry width="50" height="50" relative="1" as="geometry">
            <mxPoint x="70" y="270" as="sourcePoint" />
            <mxPoint x="120" y="220" as="targetPoint" />
          </mxGeometry>
        </mxCell>
        <mxCell id="n6gCB87Q7yF7u9heOllY-18" value="" style="endArrow=none;html=1;rounded=0;exitX=0.5;exitY=0;exitDx=0;exitDy=0;exitPerimeter=0;entryX=0.5;entryY=1;entryDx=0;entryDy=0;" edge="1" parent="1" source="n6gCB87Q7yF7u9heOllY-5" target="n6gCB87Q7yF7u9heOllY-4">
          <mxGeometry width="50" height="50" relative="1" as="geometry">
            <mxPoint x="160" y="390" as="sourcePoint" />
            <mxPoint x="210" y="340" as="targetPoint" />
          </mxGeometry>
        </mxCell>
        <mxCell id="n6gCB87Q7yF7u9heOllY-20" value="" style="endArrow=none;html=1;rounded=0;exitX=0.5;exitY=1;exitDx=0;exitDy=0;entryX=0.5;entryY=0;entryDx=0;entryDy=0;entryPerimeter=0;" edge="1" parent="1" source="n6gCB87Q7yF7u9heOllY-6" target="n6gCB87Q7yF7u9heOllY-3">
          <mxGeometry width="50" height="50" relative="1" as="geometry">
            <mxPoint x="100" y="540" as="sourcePoint" />
            <mxPoint x="150" y="490" as="targetPoint" />
          </mxGeometry>
        </mxCell>
        <mxCell id="n6gCB87Q7yF7u9heOllY-21" value="" style="endArrow=none;html=1;rounded=0;exitX=1;exitY=0.5;exitDx=0;exitDy=0;exitPerimeter=0;entryX=0;entryY=0.5;entryDx=0;entryDy=0;" edge="1" parent="1" source="n6gCB87Q7yF7u9heOllY-5" target="n6gCB87Q7yF7u9heOllY-7">
          <mxGeometry width="50" height="50" relative="1" as="geometry">
            <mxPoint x="460" y="330" as="sourcePoint" />
            <mxPoint x="510" y="280" as="targetPoint" />
          </mxGeometry>
        </mxCell>
        <mxCell id="n6gCB87Q7yF7u9heOllY-22" value="" style="endArrow=none;html=1;rounded=0;exitX=0.5;exitY=1;exitDx=0;exitDy=0;entryX=0.5;entryY=0;entryDx=0;entryDy=0;" edge="1" parent="1" source="n6gCB87Q7yF7u9heOllY-7" target="n6gCB87Q7yF7u9heOllY-9">
          <mxGeometry width="50" height="50" relative="1" as="geometry">
            <mxPoint x="10" y="470" as="sourcePoint" />
            <mxPoint x="60" y="420" as="targetPoint" />
          </mxGeometry>
        </mxCell>
        <mxCell id="n6gCB87Q7yF7u9heOllY-23" value="да" style="text;html=1;align=center;verticalAlign=middle;resizable=0;points=[];autosize=1;strokeColor=none;fillColor=none;" vertex="1" parent="1">
          <mxGeometry x="410" y="348" width="40" height="30" as="geometry" />
        </mxCell>
        <mxCell id="n6gCB87Q7yF7u9heOllY-24" value="нет" style="text;html=1;align=center;verticalAlign=middle;resizable=0;points=[];autosize=1;strokeColor=none;fillColor=none;" vertex="1" parent="1">
          <mxGeometry x="360" y="420" width="40" height="30" as="geometry" />
        </mxCell>
        <mxCell id="n6gCB87Q7yF7u9heOllY-26" value="" style="endArrow=none;html=1;rounded=0;entryX=0.5;entryY=0;entryDx=0;entryDy=0;exitX=0.5;exitY=1;exitDx=0;exitDy=0;exitPerimeter=0;" edge="1" parent="1" source="n6gCB87Q7yF7u9heOllY-5" target="n6gCB87Q7yF7u9heOllY-6">
          <mxGeometry width="50" height="50" relative="1" as="geometry">
            <mxPoint x="330" y="450" as="sourcePoint" />
            <mxPoint x="290" y="450" as="targetPoint" />
          </mxGeometry>
        </mxCell>
      </root>
    </mxGraphModel>
  </diagram>
</mxfile>
